ModelForces
version=1
nRows=4
nColumns=71
inDegrees=no

This file contains the forces exerted on a model during a simulation.

A force is a generalized force, meaning that it can be either a force (N) or a torque (Nm).

Units are S.I. units (second, meters, Newtons, ...)
Angles are in degrees.

endheader
time	semimem_r	semiten_r	bifemlh_r	bifemsh_r	sar_r	grac_r	rect_fem_r	vas_med_r	vas_int_r	vas_lat_r	med_gas_r	lat_gas_r	contactForce_femur_lat_meniscii_l.femur_lat_l.force.X	contactForce_femur_lat_meniscii_l.femur_lat_l.force.Y	contactForce_femur_lat_meniscii_l.femur_lat_l.force.Z	contactForce_femur_lat_meniscii_l.femur_lat_l.torque.X	contactForce_femur_lat_meniscii_l.femur_lat_l.torque.Y	contactForce_femur_lat_meniscii_l.femur_lat_l.torque.Z	contactForce_femur_lat_meniscii_l.meniscus_lat_l.force.X	contactForce_femur_lat_meniscii_l.meniscus_lat_l.force.Y	contactForce_femur_lat_meniscii_l.meniscus_lat_l.force.Z	contactForce_femur_lat_meniscii_l.meniscus_lat_l.torque.X	contactForce_femur_lat_meniscii_l.meniscus_lat_l.torque.Y	contactForce_femur_lat_meniscii_l.meniscus_lat_l.torque.Z	contactForce_femur_med_meniscii_l.femur_med_l.force.X	contactForce_femur_med_meniscii_l.femur_med_l.force.Y	contactForce_femur_med_meniscii_l.femur_med_l.force.Z	contactForce_femur_med_meniscii_l.femur_med_l.torque.X	contactForce_femur_med_meniscii_l.femur_med_l.torque.Y	contactForce_femur_med_meniscii_l.femur_med_l.torque.Z	contactForce_femur_med_meniscii_l.meniscus_med_l.force.X	contactForce_femur_med_meniscii_l.meniscus_med_l.force.Y	contactForce_femur_med_meniscii_l.meniscus_med_l.force.Z	contactForce_femur_med_meniscii_l.meniscus_med_l.torque.X	contactForce_femur_med_meniscii_l.meniscus_med_l.torque.Y	contactForce_femur_med_meniscii_l.meniscus_med_l.torque.Z	contactForce_femur_lat_meniscii_r.femur_lat_r.force.X	contactForce_femur_lat_meniscii_r.femur_lat_r.force.Y	contactForce_femur_lat_meniscii_r.femur_lat_r.force.Z	contactForce_femur_lat_meniscii_r.femur_lat_r.torque.X	contactForce_femur_lat_meniscii_r.femur_lat_r.torque.Y	contactForce_femur_lat_meniscii_r.femur_lat_r.torque.Z	contactForce_femur_lat_meniscii_r.meniscus_lat_r.force.X	contactForce_femur_lat_meniscii_r.meniscus_lat_r.force.Y	contactForce_femur_lat_meniscii_r.meniscus_lat_r.force.Z	contactForce_femur_lat_meniscii_r.meniscus_lat_r.torque.X	contactForce_femur_lat_meniscii_r.meniscus_lat_r.torque.Y	contactForce_femur_lat_meniscii_r.meniscus_lat_r.torque.Z	contactForce_femur_med_meniscii_r.femur_med_r.force.X	contactForce_femur_med_meniscii_r.femur_med_r.force.Y	contactForce_femur_med_meniscii_r.femur_med_r.force.Z	contactForce_femur_med_meniscii_r.femur_med_r.torque.X	contactForce_femur_med_meniscii_r.femur_med_r.torque.Y	contactForce_femur_med_meniscii_r.femur_med_r.torque.Z	contactForce_femur_med_meniscii_r.meniscus_med_r.force.X	contactForce_femur_med_meniscii_r.meniscus_med_r.force.Y	contactForce_femur_med_meniscii_r.meniscus_med_r.force.Z	contactForce_femur_med_meniscii_r.meniscus_med_r.torque.X	contactForce_femur_med_meniscii_r.meniscus_med_r.torque.Y	contactForce_femur_med_meniscii_r.meniscus_med_r.torque.Z	aACL_R	pACL_R	aPCL_R	pPCL_R	aMCL_R	aLCL_R	aPCL_L	pPCL_L	aMCL_L	aLCL_L
      0.00000000	     42.08871545	     20.39625746	     37.70552566	     36.02692537	      7.59180275	      7.77929781	     52.60101487	     32.54881778	     32.95374156	     40.25929667	     67.53931045	     31.73375273	      0.27630743	      5.09959794	     -0.95604224	      0.52199749	     -0.00257884	      0.14858179	     -0.27630743	     -5.09959794	      0.95604224	     -0.17463777	      0.00255804	     -0.04830170	     -0.33159939	      2.09761597	     -0.34046892	      0.09447322	     -0.00213861	     -0.10050179	      0.33159939	     -2.09761597	      0.34046892	      0.02807573	      0.00036872	     -0.02975888	      0.25347306	      0.53050405	     -0.00363810	     -0.01230405	      0.00668067	      0.10597949	     -0.25347306	     -0.53050405	      0.00363810	      0.01656877	     -0.00805114	     -0.00868989	     -0.02745416	      0.08668918	      0.00600999	     -0.00060709	      0.00046390	     -0.00942312	      0.02745416	     -0.08668918	     -0.00600999	     -0.00124003	     -0.00031179	     -0.00120874	      0.00000120	      0.00002900	      0.00000000	      0.00000000	      0.00000000	      0.00000000	      0.00000000	      0.00000000	      0.00000001	      0.00000000
      0.00105573	     42.04951197	     21.20312227	     37.91527227	     39.80858242	     10.05063200	      9.14021591	     50.93448009	     29.52539040	     30.11346898	     37.05514197	     66.05512640	     31.03650991	      0.30155543	      4.69515932	     -0.89518102	      0.48689466	     -0.00350455	      0.15715234	     -0.30155543	     -4.69515932	      0.89518102	     -0.16131755	      0.00366106	     -0.04665582	     -0.33782288	      1.95216086	     -0.30977348	      0.08498090	     -0.00282221	     -0.10567085	      0.33782288	     -1.95216086	      0.30977348	      0.02634146	      0.00106379	     -0.02681293	      0.07568460	      1.78563843	     -0.00561576	     -0.04462939	      0.00210123	      0.03213282	     -0.07568460	     -1.78563843	      0.00561576	      0.05642999	     -0.00251347	     -0.00417132	     -0.07675293	      0.35682536	      0.00786554	      0.00461447	      0.00153509	     -0.02411927	      0.07675293	     -0.35682536	     -0.00786554	     -0.00571798	     -0.00111559	     -0.00567956	      0.00000000	      0.00000000	      0.00000000	      0.00000000	      0.00000000	      0.00000000	      0.67128125	      0.00000000	      6.93610893	      8.67318017
      0.00298932	     40.23354506	     24.06757958	     37.47240498	     50.30349920	     17.30637826	     13.80783358	     41.05280008	     14.70724156	     15.75403928	     20.37201423	     55.50270763	     26.07996804	      0.31025641	      3.14364284	     -0.61814996	      0.33324488	     -0.00488581	      0.15115755	     -0.31025641	     -3.14364284	      0.61814996	     -0.10801127	      0.00541511	     -0.03541849	     -0.28460099	      1.38581323	     -0.16162014	      0.03575751	     -0.00404001	     -0.09313015	      0.28460099	     -1.38581323	      0.16162014	      0.02081808	      0.00267792	     -0.01817445	     -3.68864845	     31.10253043	      0.83416728	     -1.17743889	     -0.10585654	     -1.45758632	      3.68864845	    -31.10253043	     -0.83416728	      1.02426997	      0.12637796	      0.01512463	     -2.02021971	     23.81109598	      0.20781628	      0.41067879	      0.04146738	     -0.54891751	      2.02021971	    -23.81109598	     -0.20781628	     -0.36214997	     -0.03041145	     -0.24608727	      0.00000000	      0.00000000	      0.00000000	      0.00000000	      0.00000000	      0.00000000	      0.97898062	      0.00000000	     14.87739101	     17.96614554
      0.00543768	     36.44695798	     28.46563803	     36.04332212	     61.17278435	     24.84781440	     19.37732534	     26.03495107	      1.72208519	      2.07563427	      3.26834650	     37.13955350	     17.50103316	      0.32514714	      1.12036746	     -0.32934924	      0.16323155	     -0.00634725	      0.14210858	     -0.32514714	     -1.12036746	      0.32934924	     -0.04094228	      0.00729128	     -0.01816822	     -0.17688415	      0.60354980	     -0.02323452	     -0.00417262	     -0.00374762	     -0.06186089	      0.17688415	     -0.60354980	      0.02323452	      0.01064250	      0.00299238	     -0.00701263	     -7.34369031	    207.12666656	      5.84495013	     -7.90509698	     -0.23367908	     -2.23709865	      7.34369031	   -207.12666656	     -5.84495013	      6.77710863	      0.27813092	     -0.75535772	      1.18169202	    190.66151217	     -0.80272006	      4.39884795	      0.00953336	      2.86808349	     -1.18169202	   -190.66151217	      0.80272006	     -3.06158451	     -0.01657249	     -2.57141446	      0.00000000	      0.00000000	      0.00000000	      0.00000000	      0.00000000	      0.00000000	      0.87738077	      0.00000000	     19.50347279	     23.12713150
